# xmcd CD database file
#
# Track frame offsets:
#	150
#	20082
#	32482
#	53972
#	73060
#	100907
#	119735
#	142067
#	157465
#	178147
#	191135
#	205625
#
# Disc length: 3102 seconds
#
# Revision: 4
# Processed by: cddbd v1.5.2PL0 Copyright (c) Steve Scherf et al.
# Submitted via: CDex 1.70beta2
#
DISCID=be0c1c0c
DTITLE=Santana - I grandi successi
DYEAR=1987
DGENRE=Rock
TTITLE0=Samba pa ti
TTITLE1=Love devotion and surrender
TTITLE2=Flor d'luna
TTITLE3=Oye como va
TTITLE4=Gitano
TTITLE5=Well all right
TTITLE6=Europa
TTITLE7=Winning
TTITLE8=Revelation
TTITLE9=Evil ways
TTITLE10=Black magic woman
TTITLE11=Song of the wind
EXTD=YEAR: 1987
EXTT0=
EXTT1=
EXTT2=
EXTT3=
EXTT4=
EXTT5=
EXTT6=
EXTT7=
EXTT8=
EXTT9=
EXTT10=
EXTT11=
PLAYORDER=
